<svg xmlns="http://www.w3.org/2000/svg" viewBox="0 0 1600 900" role="img" aria-labelledby="title desc">
  <title id="title">Escena rural de respaldo</title>
  <desc id="desc">Ilustración de apoyo con montañas, cultivos y una figura campesina.</desc>
  <defs>
    <linearGradient id="sky" x1="0" x2="0" y1="0" y2="1">
      <stop offset="0%" stop-color="#f4c47a"/>
      <stop offset="55%" stop-color="#f7e2bb"/>
      <stop offset="100%" stop-color="#fff7ec"/>
    </linearGradient>
    <linearGradient id="field" x1="0" x2="1" y1="0" y2="1">
      <stop offset="0%" stop-color="#5b8c43"/>
      <stop offset="100%" stop-color="#2f5d31"/>
    </linearGradient>
  </defs>
  <rect width="1600" height="900" fill="url(#sky)"/>
  <circle cx="1230" cy="170" r="84" fill="#f1a93a" opacity="0.9"/>
  <path d="M0 470 L220 320 L440 430 L690 250 L960 430 L1220 290 L1600 470 L1600 900 L0 900 Z" fill="#8a6a54"/>
  <path d="M0 560 C220 520 380 590 560 560 C760 530 860 620 1040 590 C1250 555 1380 620 1600 575 L1600 900 L0 900 Z" fill="url(#field)"/>
  <path d="M0 650 C180 620 360 700 590 665 C760 640 920 720 1110 690 C1300 660 1450 720 1600 700 L1600 900 L0 900 Z" fill="#7aa35a"/>
  <path d="M170 720 L300 610 L380 720 Z" fill="#6a4a36"/>
  <rect x="215" y="720" width="120" height="90" fill="#d9c0a4"/>
  <rect x="1120" y="540" width="30" height="170" rx="10" fill="#4a3428"/>
  <circle cx="1135" cy="500" r="48" fill="#d7a15c"/>
  <path d="M1082 568 C1112 548 1152 548 1188 568 L1210 635 L1064 635 Z" fill="#f7f1dc"/>
  <path d="M1110 472 C1130 440 1182 450 1198 486 C1168 496 1138 496 1110 472 Z" fill="#c4450c"/>
  <text x="110" y="120" font-family="Arial, sans-serif" font-size="54" font-weight="700" fill="#ffffff">Respaldo visual del tema rural</text>
  <text x="110" y="180" font-family="Arial, sans-serif" font-size="28" fill="#fff6ea">La imagen principal no cargó, pero la presentación sigue completa.</text>
</svg>
